<svg version="1.0" xmlns="http://www.w3.org/2000/svg" width="2276" height="2276" viewBox="0 0 1707 1707"><path d="M1407 175.5c-.1 19.9-1.2 46.9-2.5 63.5-1.4 17.1-3.1 36.3-4 43-.2 1.9-.7 6.2-1 9.5-.4 3.3-.8 7.1-1 8.5-.2 1.4-.9 6.3-1.5 11s-1.3 9.6-1.5 11c-.6 4.5-1.7 11.5-2.1 13.4-.2 1-.6 3.7-.8 6-.5 3.7-6.8 38.1-8 43.1-.2 1.1-1.4 6.7-2.5 12.4s-2.2 10.5-2.4 10.7c-.1.2-2.7-2-5.8-4.9-11.8-11.1-19.8-18.5-27.4-25.2-4.3-3.9-9.1-8.1-10.6-9.5-9.6-8.9-35.8-30.7-50.9-42.3-6.9-5.3-13-10-13.5-10.5-.6-.4-3.9-2.9-7.5-5.5-3.6-2.5-7-5-7.5-5.5-.6-.5-8.6-5.9-17.8-12.1-50.2-33.5-101.5-59.8-154.2-79.1-9.3-3.4-17.9-6.5-19-7-2.2-.9-25.6-8.2-32-10-15.1-4.2-40.2-10.6-45.5-11.6-1.9-.3-3.9-.7-4.5-.8-2.9-.7-12.4-2.6-15-3.1-1.6-.2-5.5-.9-8.5-1.5-3-.5-7.3-1.2-9.5-1.5-7.8-1.1-10-1.5-12.5-2-1.4-.2-5.1-.7-8.3-1-3.2-.4-6.7-.8-7.9-1-1.1-.3-6-.7-10.7-1-4.7-.4-9.7-.8-11.1-1-13.4-2-71.1-2.7-93-1.2-15 1.1-24.9 2-33 3.2-1.4.2-4.7.6-7.5 1-4.5.5-11.9 1.6-21.5 3-1.9.3-5.5 1-8 1.5s-6.3 1.2-8.5 1.6c-4.9.9-5 .9-11.7 2.4-2.9.6-6.4 1.4-7.8 1.6-1.4.3-6.1 1.4-10.5 2.5-4.4 1.2-8.8 2.2-9.7 2.4-10.5 2.1-43.2 12.6-64.1 20.6-67.5 25.8-129.5 63-190.1 114.2-21.4 18.1-53.2 49.3-74.6 73.3-5 5.5-24.2 28.4-26.5 31.5-1.1 1.5-5.8 7.5-10.5 13.5-20.8 26.5-51.4 71.6-66.1 97.4-.8 1.4-1.9 3.2-2.5 4-1.2 1.6-1.6 2.4-17.2 30.5-15.3 27.8-32.4 63-45.2 93.5-4.5 10.7-8.5 20.4-9 21.5-5.5 12.7-23.4 64.5-22.5 65.3.5.5 1.8-.5 8.6-6.6 10.2-9.2 42.8-32.3 60.3-42.7 2.8-1.7 6.6-4 8.5-5.2 19-11.7 66.5-36.9 87.6-46.3 12.8-5.8 29.9-13.1 39.5-17 5.8-2.3 12.4-5 14.8-5.9 2.4-1 5.4-1.6 6.7-1.3 2.4.4 2.9 1.8 5 13.4.5 2.7 5.8 23.5 9.5 37.3 4.3 16.4 17.8 58.8 20.9 66 .5 1.1 1.9 4.5 3.1 7.5 2.1 5.5 2.5 6.5 5.3 13 9.5 22.3 11 25.6 18.4 40.4 6 12.1 11.8 21.6 13.2 21.6.4 0 2.1-6.2 4-13.8 5.9-24.1 21.5-74.3 25.7-82.4.8-1.5 1.4-2.9 1.3-3 0-.2.4-1.6 1-3.1.6-1.6 1.1-3.1 1.1-3.4 0-.3.6-1.9 1.4-3.6.8-1.8 2.8-6.8 4.6-11.2 11.7-29.1 29.6-65.1 45.5-91.7 5.2-8.6 8-13.1 15.8-24.8 37.7-56.7 82.8-103.1 130.2-133.8 13.6-8.9 17.6-11.1 35-19.7 23.5-11.6 47.6-20.2 76.5-27.5 12.3-3.1 13.1-3.3 26-5.6 19.3-3.4 26.4-4.3 40.8-5.1 21.9-1.1 64.7-.4 78.7 1.2 6 .7 12.4 1.6 14.8 2.1 1.2.2 4.2.7 6.7 1 2.5.3 5.3.8 6.2 1 1 .3 3 .7 4.5 1 1.6.2 3.9.7 5.3.9 1.4.3 3.6.8 5 1 4.9.9 6.6 1.3 10.5 2.3 2.2.6 5.1 1.3 6.5 1.6 7.5 1.3 32.3 8.6 50 14.6 36.3 12.4 87.4 37 116.3 56.1 3.2 2.2 6.1 3.9 6.3 3.9.4 0 26.6 17.4 28.9 19.2.6.5 7.8 5.9 16.1 12.1 24.7 18.3 32.9 25.4 29.7 25.8-4.7.4-21.3 5.3-43.8 12.7-6 2-11.4 3.7-12 3.8-1 .3-14.2 5-28 10.2-8.3 3.1-23.4 9.2-29.5 11.9-1.9.8-5.1 2.2-7 3.1-20.4 8.9-47.5 23.3-69 36.5-6.3 3.9-12.6 7.9-13.9 8.9-2.1 1.6-2.2 1.8-.5 1.9 1.1.1 3 .2 4.4.4 1.4.1 5.4.5 9 .8 16.8 1.7 39.6 5.9 59.8 11.3 10.3 2.7 25.7 7.1 28.2 8.1.8.3 2 .7 2.5.9 7.6 1.9 51.5 18.6 63.5 24.1 3 1.4 9 4.1 13.3 6 19.8 8.7 55.9 27.8 79.9 42.2 1.5.9 6.4 3.8 10.9 6.5 8.6 5.2 51.6 33.7 56.6 37.5 1.5 1.2 11.3 8.5 21.8 16.3 10.4 7.8 27.9 21.4 38.8 30.2 22.4 18.1 31.9 25.5 32.9 25.6.6 0 6.8-24.6 9.3-37 .9-4.2 1.6-8.3 2.1-11.5.3-2.2.7-4.2.9-4.5.2-.3.6-2.6 1-5 .3-2.5 1.2-8.6 2-13.5.7-5 1.6-11.5 2-14.5.3-3 .8-6.6 1-8 .2-1.4.7-5.2 1-8.5.4-3.3.8-7.4 1-9 .3-2.7.8-7.2 2-18.5.2-1.9.6-7.3 1-12s.8-9.6 1-10.9c2.7-16.6 2.7-170.6 0-175.1-.1-.3-.6-5.2-1-11s-.9-11.2-1-12c-.2-.8-.6-4.4-1-8-.7-6.7-1.2-11.7-2-18.5-.3-2.2-.7-6.1-1-8.7-.2-2.6-.7-5.8-.9-7-.3-1.3-.8-4.6-1.1-7.3-.3-2.8-1-7.5-1.5-10.5s-1.2-7.3-1.5-9.5c-.3-2.2-.7-4.7-1-5.5-.2-.8-.6-3.5-.9-6-.3-2.5-.8-5.6-1.1-7-.3-1.4-.9-5-1.5-8s-1.2-6.6-1.5-8c-.3-1.4-.8-3.9-1.1-5.5-.3-1.7-1-5-1.5-7.5-.6-2.5-1.3-5.6-1.5-7-5.5-30.5-34.2-124.9-45.4-149.5-.5-1.1-4-9.7-7.9-19-9.1-22.1-13.4-31.8-15.4-34.7-1.5-2.2-1.6-1.5-1.7 10.7zM231.7 861.7c-.5.8-1.4 4.8-2.2 9.3-1.4 8.3-3.7 21.9-4.1 24.5-.2 1.6-.6 4.1-.9 5.5-.3 1.4-.7 3.8-.9 5.5-1.1 6.6-1.7 10.1-2.1 12.5-.2 1.4-.7 4.5-1 7-.3 2.5-.8 5.2-1 6-.3.8-.7 3.5-1 6-.3 2.5-.7 5.2-1 6-.2.8-.6 3.7-1 6.5-.3 2.7-.7 6.1-1 7.5-1.2 6.4-4.1 28.9-4.9 37-.2 3-.7 8.6-1.1 12.5-.3 3.8-.8 8.8-1.1 11-2.6 23-2.6 152.8 0 175.5.3 1.9.7 7.3 1.1 12 .3 4.7.8 9.8 1 11.5.5 3.2 1.2 8.9 2 17 .3 2.7.8 6.5 1 8.3.3 1.8.7 5.4 1 8 .3 2.6.8 5.8 1 7.2.5 2.5.8 4.6 1.9 12.5 3.1 22 9 53.6 14.1 76.6.9 4.2 4.7 19.9 5.1 21.4.2.5.5 1.9.7 3 8.8 38.2 33.6 110.4 51.3 149.3 1.3 2.9 2.4 5.4 2.4 5.6 0 .6 8 17.6 8.3 17.6.1 0 .3-2.8.3-6.3.1-7.7 1.4-42.1 1.9-48.5.2-2.6.6-9.9 1-16.2.4-6.3.8-13.3 1.1-15.5.2-2.2.6-7.6.9-12 .3-4.4.7-9.8 1-12 .2-2.2.7-6.7 1-10 .9-8.8 1.6-14.7 2-17.5.2-1.4.9-6.3 1.5-11s1.3-9.7 1.6-11.3c1.1-7 2.1-13 3.8-23.2 6-35.6 11.3-61.5 12.5-61.5.6 0 5.4 4.4 22.2 20.4 29.4 27.9 52.6 47.4 85.9 72 13.7 10.2 52.7 36.6 61.6 41.7 2.3 1.3 10.6 6.1 18.5 10.7 12.7 7.3 49.6 26.1 66.4 33.7 16.3 7.4 50.9 20.4 75.5 28.3 20 6.5 56.8 15.8 75.5 19.1 3.3.6 7.1 1.3 8.5 1.6 3.7.8 7 1.4 11.5 2.1 6.4 1 7.6 1.2 16 2.3 4.4.6 9 1.3 10.3 1.6 1.3.2 5 .7 8.3 1 3.3.4 6.8.8 7.7 1 13.3 2.5 107 2.6 128.5 0 1.8-.2 5.7-.6 8.7-1 16.9-1.9 51.8-8.3 72-13.2 19.8-4.7 54.3-14.9 64-18.8 1.9-.8 8-3.1 13.5-5.1 5.5-2 11.8-4.4 14-5.4 26.3-11.4 49.2-22.5 65-31.3 17.9-10 15.2-8.4 27-15.8 18.6-11.6 54.7-37 63.5-44.5.8-.8 7.8-6.6 15.5-13.1 7.7-6.4 15.8-13.3 17.9-15.3 16.6-15 38-36.2 50.9-50.4 4.5-5 8.9-9.7 9.7-10.6 3.4-3.6 19.2-22.2 27.1-32 14.8-18.3 34.1-44.6 47.3-64.5 4.7-7.2 9-13.5 9.4-14 .5-.6 2.2-3.2 3.8-5.9 1.6-2.6 3.6-5.8 4.4-7.1 3.9-6.2 22.1-36.7 24.9-41.8 1.7-3.1 4.4-8.1 6-11 13.2-24 28.8-55.7 39.3-79.7 2.8-6.3 5.6-12.9 6.4-14.5 7-15.7 26.4-67.5 30.9-82.8 1.4-4.6 1.4-4.7-.6-3.6-1.1.6-2.8 1.8-3.8 2.7-2.9 2.8-12 10.4-14.4 12.1-1.2.8-2.4 1.8-2.7 2.1-.8 1.1-11.5 8.5-28.3 19.7-46.4 30.7-109.3 62.9-166.3 85.1l-10.1 3.9-1.3-5.1c-.8-2.8-1.5-5.6-1.6-6.1-2.3-10.7-11.4-45.4-14.5-55.6-1.2-4.1-2.4-8-2.5-8.7-.9-4.8-13.4-40.3-21.1-60.2-9.3-23.9-30.3-65-33.2-65-.3 0-1.9 5.3-3.5 11.7-6.9 28.5-23.4 80.7-30.6 96.8-.5 1.1-4 9.5-7.9 18.6-11.9 28.5-34.6 72.9-45.2 88.7-1.6 2.4-2.9 4.6-2.9 4.9 0 1.1-20.6 31.3-29.9 43.8-18.2 24.4-44.5 53.5-62.7 69.5-9.1 8-10.8 9.4-19.9 16.6-33.4 26.4-74.1 47.8-115.5 60.6-18 5.5-47.5 12.2-63 14.2-2.5.3-5.6.8-7 1.1-6.7 1.3-24.5 2-54 2-34 0-47.6-.8-63.7-3.9-1.2-.3-4.3-.8-7-1.2-2.6-.3-5.7-.8-6.8-1.1-6.6-1.3-12.4-2.4-15-2.9-13.9-2.5-55.5-14.8-75.5-22.4-4.7-1.8-9.5-3.5-10.7-3.7-1.3-.3-2.3-.9-2.3-1.4 0-.5-.6-.9-1.3-.9-3.4 0-40.5-17.6-59.1-27.9-6-3.4-11.1-6.1-11.4-6.1-.2 0-1.6-.8-3-1.9-1.5-1-4.3-2.8-6.2-3.8-28.7-16.3-92.8-62.9-90.2-65.5.5-.5 8.3-3.1 17.3-5.8 15-4.4 33-10.3 54.9-17.8 12.5-4.4 30.4-11.4 39.3-15.6 4.3-2 8.1-3.6 8.3-3.6 2.5 0 52.4-26.2 66.7-35.1 4.3-2.7 8-4.9 8.2-4.9.2 0 2.7-1.6 5.6-3.5 4.7-3 5-3.5 2.9-3.6-11.1-.5-37.3-4.8-63.3-10.4-1-.2-8.6-2.3-17-4.6-31.5-8.6-60.2-19.2-99.7-36.5-3.6-1.5-16.6-7.9-29-14.1-52-26-105.6-59.6-144.5-90.7-8.2-6.6-15.2-12.3-15.5-12.6-.3-.3-4.3-3.7-9-7.5-12.5-10.3-33.9-28.5-38.5-32.8-4.1-3.8-5-4.3-5.8-3z"/></svg>