<svg viewBox="0 0 1706.667 1517.333" xmlns="http://www.w3.org/2000/svg" xmlns:xlink="http://www.w3.org/1999/xlink"><style>:root&gt;svg{display:none}:root&gt;svg:target{display:block}</style><svg viewBox="0 0 22 16" id="arrow-icon" xmlns="http://www.w3.org/2000/svg"><path d="M21.207 8.707a1 1 0 000-1.414L14.843.929a1 1 0 10-1.414 1.414L19.086 8l-5.657 5.657a1 1 0 001.414 1.414l6.364-6.364zM.5 9h20V7H.5v2z"/></svg><svg version="1.0" viewBox="0 0 1280 1138" id="arrows" xmlns="http://www.w3.org/2000/svg"><path d="M1055 61.6c0 46.3-6.9 109.5-17 156.9-1.2 5.5-2.4 11.5-2.7 13.2l-.6 3.3-9.9-9.3c-52.2-48.7-93.2-79.2-142.6-106.1C831.7 92.1 771 71.2 716.5 62.5c-5.5-.8-11.2-1.7-12.8-2-8.8-1.5-31.8-3.6-48.6-4.5-41.8-2.3-90.6 2.8-135.6 14.1C433.6 91.8 356 137.9 288 207.6 223.9 273.3 166.9 365.8 131.5 461c-5.7 15.4-11.5 32.7-11.5 34.4 0 .5 2.4-1.3 5.3-4 7.1-6.7 14.7-12.4 30.7-23.1 37.2-24.8 77.1-45.5 121.9-63.5 13.5-5.3 13.4-5.3 14.6 1.1 2.6 14.5 13.1 52.3 20.5 73.6 8.5 24.2 25.5 61.8 31.3 68.9l2.3 2.9 3.8-15.4c6.6-26.6 19.4-63.5 32-91.6 35.5-79.6 87.6-143 145.7-177.4 32.4-19.2 70.8-31.7 113.9-37.1 15.6-1.9 58.2-1.6 74 .6 77.5 10.8 146.1 41.4 216.3 96.5 10.6 8.3 12.2 10.1 9.1 10.1-2.5 0-21.1 5.5-39.1 11.6-40.8 13.6-75.5 29.8-106.8 49.8l-8 5.1 8 .7c22.8 2 47.7 7.5 76 17 70.7 23.5 142.5 65.4 215 125.3 15.3 12.7 19.5 15.7 19.5 14.1 0-.2 1.1-4.6 2.4-9.7 6.9-26.8 11.3-57.4 15.8-109.9 1.7-19.7 1.7-99.8 0-119.5-3.6-42.2-6.3-63.6-12.3-96.5-9.8-53.5-28-111.8-50.9-163-2.8-6.3-5.3-11.6-5.5-11.9-.3-.2-.5 4.9-.5 11.5zM173.6 575.1c-1.4 4.2-13.1 76.8-14.6 90.4-4 36.6-4.4 45.4-4.4 92.5-.1 55 1.2 73.9 8.5 124.5 9.4 65.5 27.6 128.9 54.2 189.3l7.2 16.2.2-9.2c.8-32 3.5-71.8 6.9-97.8 2.9-22.8 12.6-76.4 14-77.9.3-.3 5.3 4.2 11.2 10 29.2 28.7 63 55.9 98.7 79.5 67.5 44.5 142.1 73.2 219 84.3 29.3 4.2 35.5 4.6 70.5 4.6 40.2-.1 55.4-1.4 89.5-8.1 121.1-23.6 225.9-92.8 309.6-204.6 47.4-63.4 85.7-136.5 112-213.8 2.1-6.3 3.9-11.8 3.9-12.3 0-.4-2.8 1.7-6.3 4.8-28.9 25.8-96.4 63.8-152.7 85.9l-11.5 4.5-1.1-3.7c-.7-2-2.6-9.8-4.4-17.2-6.2-26.5-14.4-52.5-24.7-79-6.8-17.2-19.5-43.4-23.6-48.4l-2.4-2.9-3.1 12.9c-14.4 58.7-40.6 118.8-72.7 166.7-57 85.3-124.8 129.4-217 141.3-18 2.3-56.2 2.3-74.5 0-77.3-9.8-148.6-41.6-220-98-4.7-3.7-8.6-7.1-8.8-7.5-.1-.4 3.7-1.8 8.5-3.1 12.9-3.3 47.8-15 62.8-21 23.8-9.5 51.5-23.5 73.9-37.4l9.9-6.1-6.9-.7c-73.1-7.3-165.8-47.4-247.9-107.2-10.1-7.3-51-41.2-59.7-49.4-2.7-2.6-3.9-3.2-4.2-2.1z"/></svg><svg viewBox="0 0 10 7" id="vector-icon" xmlns="http://www.w3.org/2000/svg"><path d="M1 1l4 4 4-4"/></svg></svg>