<?xml version="1.0" standalone="no"?>
<!DOCTYPE svg PUBLIC "-//W3C//DTD SVG 20010904//EN"
 "http://www.w3.org/TR/2001/REC-SVG-20010904/DTD/svg10.dtd">
<svg version="1.0" xmlns="http://www.w3.org/2000/svg"
 width="1707.000000pt" height="1707.000000pt" viewBox="0 0 1707.000000 1707.000000"
 preserveAspectRatio="xMidYMid meet">
<metadata>
Created by potrace 1.14, written by Peter Selinger 2001-2017
</metadata>
<g transform="translate(0.000000,1707.000000) scale(0.100000,-0.100000)"
fill="#000000" stroke="none">
<path d="M14070 15315 c-1 -199 -12 -469 -25 -635 -14 -171 -31 -363 -40 -430
-2 -19 -7 -62 -10 -95 -4 -33 -8 -71 -10 -85 -2 -14 -9 -63 -15 -110 -6 -47
-13 -96 -15 -110 -6 -45 -17 -115 -21 -134 -2 -10 -6 -37 -8 -60 -5 -37 -68
-381 -80 -431 -2 -11 -14 -67 -25 -124 -11 -57 -22 -105 -24 -107 -1 -2 -27
20 -58 49 -118 111 -198 185 -274 252 -43 39 -91 81 -106 95 -96 89 -358 307
-509 423 -69 53 -130 100 -135 105 -6 4 -39 29 -75 55 -36 25 -70 50 -75 55
-6 5 -86 59 -178 121 -502 335 -1015 598 -1542 791 -93 34 -179 65 -190 70
-22 9 -256 82 -320 100 -151 42 -402 106 -455 116 -19 3 -39 7 -45 8 -29 7
-124 26 -150 31 -16 2 -55 9 -85 15 -30 5 -73 12 -95 15 -78 11 -100 15 -125
20 -14 2 -51 7 -83 10 -32 4 -67 8 -79 10 -11 3 -60 7 -107 10 -47 4 -97 8
-111 10 -134 20 -711 27 -930 12 -150 -11 -249 -20 -330 -32 -14 -2 -47 -6
-75 -10 -45 -5 -119 -16 -215 -30 -19 -3 -55 -10 -80 -15 -25 -5 -63 -12 -85
-16 -49 -9 -50 -9 -117 -24 -29 -6 -64 -14 -78 -16 -14 -3 -61 -14 -105 -25
-44 -12 -88 -22 -97 -24 -105 -21 -432 -126 -641 -206 -675 -258 -1295 -630
-1901 -1142 -214 -181 -532 -493 -746 -733 -50 -55 -242 -284 -265 -315 -11
-15 -58 -75 -105 -135 -208 -265 -514 -716 -661 -974 -8 -14 -19 -32 -25 -40
-12 -16 -16 -24 -172 -305 -153 -278 -324 -630 -452 -935 -45 -107 -85 -204
-90 -215 -55 -127 -234 -645 -225 -653 5 -5 18 5 86 66 102 92 428 323 603
427 28 17 66 40 85 52 190 117 665 369 876 463 128 58 299 131 395 170 58 23
124 50 148 59 24 10 54 16 67 13 24 -4 29 -18 50 -134 5 -27 58 -235 95 -373
43 -164 178 -588 209 -660 5 -11 19 -45 31 -75 21 -55 25 -65 53 -130 95 -223
110 -256 184 -404 60 -121 118 -216 132 -216 4 0 21 62 40 138 59 241 215 743
257 824 8 15 14 29 13 30 0 2 4 16 10 31 6 16 11 31 11 34 0 3 6 19 14 36 8
18 28 68 46 112 117 291 296 651 455 917 52 86 80 131 158 248 377 567 828
1031 1302 1338 136 89 176 111 350 197 235 116 476 202 765 275 123 31 131 33
260 56 193 34 264 43 408 51 219 11 647 4 787 -12 60 -7 124 -16 148 -21 12
-2 42 -7 67 -10 25 -3 53 -8 62 -10 10 -3 30 -7 45 -10 16 -2 39 -7 53 -9 14
-3 36 -8 50 -10 49 -9 66 -13 105 -23 22 -6 51 -13 65 -16 75 -13 323 -86 500
-146 363 -124 874 -370 1163 -561 32 -22 61 -39 63 -39 4 0 266 -174 289 -192
6 -5 78 -59 161 -121 247 -183 329 -254 297 -258 -47 -4 -213 -53 -438 -127
-60 -20 -114 -37 -120 -38 -10 -3 -142 -50 -280 -102 -83 -31 -234 -92 -295
-119 -19 -8 -51 -22 -70 -31 -204 -89 -475 -233 -690 -365 -63 -39 -126 -79
-139 -89 -21 -16 -22 -18 -5 -19 11 -1 30 -2 44 -4 14 -1 54 -5 90 -8 168 -17
396 -59 598 -113 103 -27 257 -71 282 -81 8 -3 20 -7 25 -9 76 -19 515 -186
635 -241 30 -14 90 -41 133 -60 198 -87 559 -278 799 -422 15 -9 64 -38 109
-65 86 -52 516 -337 566 -375 15 -12 113 -85 218 -163 104 -78 279 -214 388
-302 224 -181 319 -255 329 -256 6 0 68 246 93 370 9 42 16 83 21 115 3 22 7
42 9 45 2 3 6 26 10 50 3 25 12 86 20 135 7 50 16 115 20 145 3 30 8 66 10 80
2 14 7 52 10 85 4 33 8 74 10 90 3 27 8 72 20 185 2 19 6 73 10 120 4 47 8 96
10 109 27 166 27 1706 0 1751 -1 3 -6 52 -10 110 -4 58 -9 112 -10 120 -2 8
-6 44 -10 80 -7 67 -12 117 -20 185 -3 22 -7 61 -10 87 -2 26 -7 58 -9 70 -3
13 -8 46 -11 73 -3 28 -10 75 -15 105 -5 30 -12 73 -15 95 -3 22 -7 47 -10 55
-2 8 -6 35 -9 60 -3 25 -8 56 -11 70 -3 14 -9 50 -15 80 -6 30 -12 66 -15 80
-3 14 -8 39 -11 55 -3 17 -10 50 -15 75 -6 25 -13 56 -15 70 -55 305 -342
1249 -454 1495 -5 11 -40 97 -79 190 -91 221 -134 318 -154 347 -15 22 -16 15
-17 -107z"/>
<path d="M2317 8453 c-5 -8 -14 -48 -22 -93 -14 -83 -37 -219 -41 -245 -2 -16
-6 -41 -9 -55 -3 -14 -7 -38 -9 -55 -11 -66 -17 -101 -21 -125 -2 -14 -7 -45
-10 -70 -3 -25 -8 -52 -10 -60 -3 -8 -7 -35 -10 -60 -3 -25 -7 -52 -10 -60 -2
-8 -6 -37 -10 -65 -3 -27 -7 -61 -10 -75 -12 -64 -41 -289 -49 -370 -2 -30 -7
-86 -11 -125 -3 -38 -8 -88 -11 -110 -26 -230 -26 -1528 0 -1755 3 -19 7 -73
11 -120 3 -47 8 -98 10 -115 5 -32 12 -89 20 -170 3 -27 8 -65 10 -83 3 -18 7
-54 10 -80 3 -26 8 -58 10 -72 5 -25 8 -46 19 -125 31 -220 90 -536 141 -766
9 -42 47 -199 51 -214 2 -5 5 -19 7 -30 88 -382 336 -1104 513 -1493 13 -29
24 -54 24 -56 0 -6 80 -176 83 -176 1 0 3 28 3 63 1 77 14 421 19 485 2 26 6
99 10 162 4 63 8 133 11 155 2 22 6 76 9 120 3 44 7 98 10 120 2 22 7 67 10
100 9 88 16 147 20 175 2 14 9 63 15 110 6 47 13 97 16 113 11 70 21 130 38
232 60 356 113 615 125 615 6 0 54 -44 222 -204 294 -279 526 -474 859 -720
137 -102 527 -366 616 -417 23 -13 106 -61 185 -107 127 -73 496 -261 664
-337 163 -74 509 -204 755 -283 200 -65 568 -158 755 -191 33 -6 71 -13 85
-16 37 -8 70 -14 115 -21 64 -10 76 -12 160 -23 44 -6 90 -13 103 -16 13 -2
50 -7 83 -10 33 -4 68 -8 77 -10 133 -25 1070 -26 1285 0 18 2 57 6 87 10 169
19 518 83 720 132 198 47 543 149 640 188 19 8 80 31 135 51 55 20 118 44 140
54 263 114 492 225 650 313 179 100 152 84 270 158 186 116 547 370 635 445 8
8 78 66 155 131 77 64 158 133 179 153 166 150 380 362 509 504 45 50 89 97
97 106 34 36 192 222 271 320 148 183 341 446 473 645 47 72 90 135 94 140 5
6 22 32 38 59 16 26 36 58 44 71 39 62 221 367 249 418 17 31 44 81 60 110
132 240 288 557 393 797 28 63 56 129 64 145 70 157 264 675 309 828 14 46 14
47 -6 36 -11 -6 -28 -18 -38 -27 -29 -28 -120 -104 -144 -121 -12 -8 -24 -18
-27 -21 -8 -11 -115 -85 -283 -197 -464 -307 -1093 -629 -1663 -851 l-101 -39
-13 51 c-8 28 -15 56 -16 61 -23 107 -114 454 -145 556 -12 41 -24 80 -25 87
-9 48 -134 403 -211 602 -93 239 -303 650 -332 650 -3 0 -19 -53 -35 -117 -69
-285 -234 -807 -306 -968 -5 -11 -40 -95 -79 -186 -119 -285 -346 -729 -452
-887 -16 -24 -29 -46 -29 -49 0 -11 -206 -313 -299 -438 -182 -244 -445 -535
-627 -695 -91 -80 -108 -94 -199 -166 -334 -264 -741 -478 -1155 -606 -180
-55 -475 -122 -630 -142 -25 -3 -56 -8 -70 -11 -67 -13 -245 -20 -540 -20
-340 0 -476 8 -637 39 -12 3 -43 8 -70 12 -26 3 -57 8 -68 11 -66 13 -124 24
-150 29 -139 25 -555 148 -755 224 -47 18 -95 35 -107 37 -13 3 -23 9 -23 14
0 5 -6 9 -13 9 -34 0 -405 176 -591 279 -60 34 -111 61 -114 61 -2 0 -16 8
-30 19 -15 10 -43 28 -62 38 -287 163 -928 629 -902 655 5 5 83 31 173 58 150
44 330 103 549 178 125 44 304 114 393 156 43 20 81 36 83 36 25 0 524 262
667 351 43 27 80 49 82 49 2 0 27 16 56 35 47 30 50 35 29 36 -111 5 -373 48
-633 104 -10 2 -86 23 -170 46 -315 86 -602 192 -997 365 -36 15 -166 79 -290
141 -520 260 -1056 596 -1445 907 -82 66 -152 123 -155 126 -3 3 -43 37 -90
75 -125 103 -339 285 -385 328 -41 38 -50 43 -58 30z"/>
</g>
</svg>
